# xmcd CD database file
#
# Track frame offsets:
#	150
#	18450
#	36714
#	57223
#	73166
#
# Disc length: 1140 seconds
#
# Revision: 0
# Processed by: cddbd v1.5.1PL2 Copyright (c) Steve Scherf et al.
# Submitted via: CDex 1.50
#
DISCID=47047205
DTITLE=Gene Bradley Fisk - Kodman
DYEAR=2000
DGENRE=Country
TTITLE0=Kidman
TTITLE1=Midwinter Blues
TTITLE2=Way Over The Edge
TTITLE3=Somewhere East Of Mt Sabine
TTITLE4=That's My Cue
EXTD=YEAR: 2000
EXTT0=
EXTT1=
EXTT2=
EXTT3=
EXTT4=
PLAYORDER=
